# xmcd
#
# Track frame offsets:
#	150
#	23321
#	41291
#	66767
#	91692
#	111300
#	130919
#	153076
#	175898
#	203865
#
# Disc length: 3003 seconds
#
# Revision: 0
# Processed by: cddbd v1.5.2PL0 Copyright (c) Steve Scherf et al.
# Submitted via: EZCDAudioConverter 7.1.2.1
#
DISCID=710bb90a
DTITLE=Ian Siegal - All The Rage
DYEAR=2018
DGENRE=Blues Rock
TTITLE0=Eagle-Vulture
TTITLE1=Jacob's Ladder
TTITLE2=The Sh*T Hit
TTITLE3=Won't Be Your Shotgun Rider
TTITLE4=Ain't You Great?
TTITLE5=My Flame
TTITLE6=One-Eyed King
TTITLE7=If I Live
TTITLE8=Sweet Souvenir
TTITLE9=Sailor Town
EXTD=
EXTT0=
EXTT1=
EXTT2=
EXTT3=
EXTT4=
EXTT5=
EXTT6=
EXTT7=
EXTT8=
EXTT9=
PLAYORDER=
